<svg xmlns="http://www.w3.org/2000/svg" width="160" height="160">
  <defs/>
  <g fill="none" fill-rule="evenodd">
    <path fill="#FFF" d="M0 0h160v160H0z"/>
    <path fill="#000" fill-rule="nonzero" d="M44 116v34H10v-34h34zm10 10v9h4v10h-4v5h-5v-24h5zm19 9v5h-5v10H58v-5h5v-10h10zm24-9v4h5v5h-5v5h-5v5h10v5H92v-5h-5v-5h-5v-5h10v-5H82v-4h15zm43 19v5h-5v-5h-5v-5h-4v5h-20v-5h-4v-5h4v-9h-4v-10h4v-10h24v5h5v-5h5v-4h5v4h5v10h-10v5h-10v9h-19v10h5v-5h14v-5h5v-4h15v9h-5v10h-5zm-58-5v5h-4v-5h4zm-43-19H15v24h24v-24zm-5 5v14H20v-14h14zm29-5v14h-5v-14h5zm15-10v5h4v5h-4v5h-5v4h-5v-9h5v-5h-5v-5h10zm4 15v4h-4v-4h4zm-24-5v5h-4v-5h4zm68-10h-15v15h15v-15zm-72-5v15h-5v-15h5zm38 10v5H82v-5h10zm29 0v5h-5v-5h5zm-29-14v4h5v5h5v5H92v-5H82v-5h5v-4h5zM39 92v5h10v9h-5v-4h-5v4h5v5H30v-5h-5v5h-5v-5h5v-4h5V92h9zm-24 0v19h-5V92h5zm63 5v5H68v9H58v-5h5v-9h15zm28 5v4h-4v-4h4zm24-10v10h-4v-5h-5v5h-15v-5h-9v5h-5V92h38zm10 0v10h-5V92h5zM25 92v10h-5V92h5zm33 0v10h-4v-5h-5v-5h9zm29 5v5h-5v-5h5zm-5-5v5h-4v-5h4zm68 0v5h-5v-5h5zm-87 0v5h-5v-5h5zM30 58v15h-5v5h5v4H20v10H10V78h10v-5H10v-5h10v-5h5v-5h5zm9 24v5h10v-5h5v5h-5v5H30V82h9zm77-24v5h5v-5h9v5h5v5h5v5h-10v-5h-24v5h24v5h10v4h-14v-4h-5v4h5v5h-20v5h-4v-5h-5v5H82V78h20V68h4V58h10zm29 24v5h-5v5h-10v-5h10v-5h5zm-82-9v19h-5V73h5zm19 5v14H68V82h5v5h5v-9h4zm15 4h-5v5h5v-5zm19-4h-5v4h5v-4zm-58 0v4h-4v-4h4zm-14 0v4h-5v-4h5zm62 0h-4v4h4v-4zm44-5v5h-5v-5h5zm-77 0v5h-5v-5h5zm-39 0v5h-4v-5h4zm48-15v15h-9v-5h5v-5H68v10h-5v-5h-5v-5h5v-5h19zm-24 0v15h-4v-5h-5v5H34V63h5v5h5v-5h5v-5h9zm39 10v5h-5v-5h5zm48-5v5h-5v-5h5zm-53-5v10h-5v-5h-5v-5h10zm10 0v10h-5V58h5zm-82 0v5h-5v-5h5zm24 0v5h-5v-5h5zm-10-9v9h-9v-4h-5v4H10v-9h24zm82 0v5h5v-5h5v5h4v4h-19v-9h5zm29 0v5h5v4h-5v-4h-5v-5h5zm-34-10v10h-5v9h-4V44h4v-5h5zM92 54v4h-5v-4h5zm-34-5v9h-4v-4H39v-5h19zm15-10v10h5V39h4v15H68V39h5zM63 49v5h-5v-5h5zm34 0v5h-5v-5h5zm38 0v5h-5v-5h5zm-24-19v4H97v5h-5v10H82v-5h5v-5h-5v-5h5v-4h24zm-48 0v14h-5V30h5zm58 0v9h24v-9h5v14h-34V30h5zm-19 9v5h-5v-5h5zm-87-9v9h24v-9h5v14H10V30h5zm39 4v10h-5V34h5zm86-4v4h-14v-4h14zm-67 0v4h-5v-4h5zm-39 0v4H20v-4h14zM15 20v10h-5V20h5zm125 0v10h-14V20h14zm-58 5v5h-9v-5h9zm68-5v10h-5V20h5zm-63 0v10h-5V20h5zm24 0v10h-5V20h5zm-9 5v5H92v-5h10zm-44-5v10h-9v-5h5v-5h4zm10 0v10h-5v-5h-5v-5h10zm53 0v10h-5V20h5zm-77 0v10h-5V20h5zm-10 0v10H20V20h14zm10-10v10h-5v-5H15v5h-5V10h34zm14 0v10h-9v-5h5v-5h4zm20 0v5h4v5H63v-5h10v-5h5zm14 0v10H82v-5h5v-5h5zm19 0v10h-5v-5h-4v5h-5V10h14zm39 0v10h-5v-5h-24v5h-5V10h34zm-10 130h-5v5h5v-5z"/>
  </g>
</svg>
