<svg xmlns="http://www.w3.org/2000/svg" width="201" height="81" fill="none"><defs/><path fill="#000" fill-rule="evenodd" d="M79.07 42.63V0h42.97V42.63H79.07zM116.6 29.2a9.37 9.37 0 013.64-1.06v-8.38c-.97.1-1.94.39-2.82.87a9.82 9.82 0 00-3 2.5 13.8 13.8 0 00-2.82 8.48v2.8l.04-.1a11.69 11.69 0 014.96-5.11zM93.92 12.62a13.8 13.8 0 00-2.81 8.48v3.08a.93.93 0 00.04-.09 11.7 11.7 0 014.96-5.11 8.92 8.92 0 013.54-1.06V9.25c-.97.14-1.84.43-2.72.87a9.82 9.82 0 00-3 2.5zm15.73 11.4V21.1c0-2.46-.63-4.82-1.65-6.7a9.95 9.95 0 00-4.17-4.28 7.5 7.5 0 00-2.48-.82v8.67c1.22.14 2.33.53 3.35 1.06 1.36.72 2.58 1.73 3.6 2.98.5.58.94 1.29 1.36 2zm-15.73-.95a13.8 13.8 0 00-2.81 8.48v2.8a.93.93 0 00.04-.1 11.7 11.7 0 014.96-5.11 8.92 8.92 0 013.54-1.06V19.7c-.97.15-1.84.44-2.72.87a9.82 9.82 0 00-3 2.5zm10-2.5a7.5 7.5 0 00-2.47-.82h-.1v8.33c1.22.15 2.33.53 3.35 1.06 1.36.73 2.58 1.74 3.6 2.99.53.63 1.02 1.4 1.45 2.17v-2.75c0-2.45-.63-4.81-1.65-6.7a9.96 9.96 0 00-4.17-4.28zm12.68-1.54a9.37 9.37 0 013.64-1.06V9.3c-.97.1-1.94.38-2.82.86a9.82 9.82 0 00-3 2.5 13.8 13.8 0 00-2.82 8.49v3.08l.04-.1a11.69 11.69 0 014.96-5.11zm-11.85-10.5a11.75 11.75 0 015 5.2V1.78h-8.35v5.69c1.21.14 2.33.53 3.35 1.06zm-8.64.04a8.92 8.92 0 013.54-1.06V1.78h-8.54v12a.93.93 0 00.04-.1 11.7 11.7 0 014.96-5.11zM89.26 24.1c-.42-.75-.9-1.48-1.4-2.09a11.76 11.76 0 00-3.6-2.98 9.57 9.57 0 00-3.45-1.06V9.3c.98.14 1.8.38 2.63.82a9.95 9.95 0 014.17 4.28 14.24 14.24 0 011.65 6.7v3zm-1.65.76a9.95 9.95 0 00-4.17-4.3 9.1 9.1 0 00-2.67-.81v8.33c1.2.15 2.37.49 3.44 1.06 1.36.73 2.58 1.74 3.6 2.99.53.63 1.02 1.4 1.45 2.17v-2.75c0-2.45-.63-4.81-1.65-6.7zm9.32 5.87a9.82 9.82 0 00-3 2.5 13.4 13.4 0 00-2.82 7.57h8.54V29.87c-.97.14-1.84.43-2.72.86zm7 0a7.5 7.5 0 00-2.48-.82v10.94h8.3a14.07 14.07 0 00-1.65-5.83 9.96 9.96 0 00-4.17-4.29zm13.5 0a9.82 9.82 0 00-3.02 2.5 13.4 13.4 0 00-2.81 7.57h8.64V29.87c-.97.1-1.94.38-2.82.86zm-.83-22.2a9.37 9.37 0 013.64-1.06V1.78h-8.64v11.95l.04-.1a11.69 11.69 0 014.96-5.11zm-27.29 5.2V1.78h-8.5v5.73c1.22.15 2.38.49 3.45 1.06 1.36.73 2.57 1.74 3.6 3 .53.62 1.01 1.39 1.45 2.16zm-5.87 17a7.66 7.66 0 00-2.58-.82v10.94h8.4a14.07 14.07 0 00-1.65-5.83 9.95 9.95 0 00-4.17-4.29zm113.4 34.6c.7 0 1.25-.4 1.25-1.39h1.42c0 1.66-1.08 2.64-2.68 2.64-1.57 0-2.66-.98-2.66-2.64h1.42c0 .99.59 1.4 1.24 1.4zm-2.35 14l3.66-11.52h2.58V81h-1.63V69.48L195.45 81h-2.59V67.81h1.63v11.52zM7.31 81h1.93L6 74.23l3.05-6.42H7.13L5 72.73l-2.15-4.92H.93l3.05 6.42L.73 81h1.94l2.32-5.26L7.3 81zm33.86 0V67.81h-6.95c0 5.94-.07 9.37-.32 10.43-.2.7-.46 1.14-1.15 1.14h-.1V81h.26c1.65 0 2.34-.67 2.6-2.66.25-1.77.32-4.5.34-8.91h3.55V81h1.77zm27.26-13.19V81h-1.77V67.81h1.77zM93.93 81h3.6c2.19 0 3.73-1.04 3.73-3.62v-.67c0-2.52-1.54-3.66-3.72-3.66h-1.85v-3.62h4.7V67.8h-6.47V81zm3.38-6.33c1.54 0 2.18.69 2.18 2.2v.3c0 1.5-.64 2.21-2.15 2.21H95.7v-4.71h1.62zm30.65.35V81h-1.77V67.81h1.77v5.6h4.29v-5.6h1.77V81h-1.77v-5.98h-4.29zm36.83-7.2l-3.65 11.5v-11.5h-1.63V81h2.59l3.65-11.52V81h1.63V67.81h-2.59z" clip-rule="evenodd"/></svg>